<svg id="Shield_logo" data-name="Shield logo" xmlns="http://www.w3.org/2000/svg" viewBox="0 0 804.84 215.91"><defs><style>.cls-1,.cls-11{fill:#0ad3ef;}.cls-2{fill:#2a80b9;}.cls-11,.cls-2,.cls-4{stroke:#162241;stroke-miterlimit:10;}.cls-11,.cls-2{stroke-width:3px;}.cls-3,.cls-4,.cls-6{fill:#162241;}.cls-4{stroke-width:5px;}.cls-5{fill:#fff;}.cls-6{font-size:76.31px;font-family:BlackerDisplay-Bold, Blacker Display;font-weight:700;letter-spacing:0.05em;}.cls-7{letter-spacing:0.02em;}.cls-8{letter-spacing:0.05em;}.cls-9{letter-spacing:-0.02em;}.cls-10{letter-spacing:0.04em;}</style></defs><polygon class="cls-1" points="88.44 104.67 78.84 94.72 78.86 94.72 88.44 104.67"/><path class="cls-2" d="M283.56,243.46l7.74,8,17.08,17.72a2.66,2.66,0,0,0,3.76.06l69.91-67.34c-1.91-25.21-7.24-42.61-7.24-42.61H217.25s-22.34,73,8.14,136.48L279.8,243.4A2.66,2.66,0,0,1,283.56,243.46Z" transform="translate(-202.87 -157.83)"/><path class="cls-2" d="M320.84,289.12l-8,7.74a2.67,2.67,0,0,1-3.76-.07L284.2,271a2.66,2.66,0,0,0-3.76-.07l-47.2,45.47c13.19,21.54,33.39,41.26,63.79,55.68,71.1-33.71,86.45-96.43,86.68-143.61L320.8,289.08Z" transform="translate(-202.87 -157.83)"/><path class="cls-3" d="M419.51,189.09l-9,31.14a2.66,2.66,0,0,1-4.47,1.11l-4.3-4.47a2.67,2.67,0,0,0-3.77-.07l-15.23,14.67L319.8,292.08l0,0-8,7.74a2.69,2.69,0,0,1-3.77-.07L283.2,274a2.67,2.67,0,0,0-3.77-.07l-47.2,45.47-19,18.27a2.67,2.67,0,0,1-3.77-.07l-5.89-6.11a2.67,2.67,0,0,1,.07-3.77l21.7-20.91,54.41-52.41a2.68,2.68,0,0,1,3.77.06l7.74,8,17.07,17.72a2.68,2.68,0,0,0,3.77.06L382,212.94l6.31-6.08a2.68,2.68,0,0,0,.08-3.77l-4.85-5a2.66,2.66,0,0,1,1.27-4.42l31.46-7.87A2.66,2.66,0,0,1,419.51,189.09Z" transform="translate(-202.87 -157.83)"/><line class="cls-4" x1="92.96" y1="0.5" x2="93.32" y2="97.92"/><path class="cls-5" d="M245.65,216.09V195.41h-8.2v-7.32h25.84v7.32h-8.2v20.68Z" transform="translate(-202.87 -157.83)"/><text class="cls-6" transform="translate(239.88 97.55)">TRA<tspan class="cls-7" x="172.77" y="0">D</tspan><tspan class="cls-8" x="231.94" y="0">E</tspan><tspan class="cls-9" x="283.19" y="0">A</tspan><tspan class="cls-8" x="338.08" y="0">CA</tspan><tspan class="cls-7" x="454.54" y="0">D</tspan><tspan x="513.71" y="0">E</tspan><tspan class="cls-8"><tspan x="0" y="65.23">U</tspan><tspan class="cls-10" x="57.02" y="65.23">N</tspan><tspan x="113.66" y="65.23">IVERSITY</tspan></tspan></text><rect class="cls-11" x="297" y="255.83" width="0.18" height="0.72" transform="translate(391.31 354.56) rotate(180)"/><path class="cls-5" d="M297.39,345.59q-6.43,0-10-3.48t-3.6-9.76V317h9.44v15.12c0,2.13.39,3.65,1.16,4.54a4,4,0,0,0,3.12,1.34,3.9,3.9,0,0,0,3.14-1.34c.76-.89,1.14-2.41,1.14-4.54V317H311v15.4q0,6.28-3.6,9.76T297.39,345.59Z" transform="translate(-202.87 -157.83)"/><path class="cls-5" d="M318.93,216.09l12.24-28h9.28l12.24,28h-9.76l-9-23.52h3.68l-9,23.52Zm7.28-4.88,2.4-6.8h12.88l2.4,6.8Z" transform="translate(-202.87 -157.83)"/></svg>